<?xml version="1.0" encoding="UTF-8"?>
<svg xmlns="http://www.w3.org/2000/svg" version="1.1" viewBox="0 0 208.1 39.7">
  <defs>
    <style>
      .cls-1 {
        fill: #b2c8df;
      }
    </style>
  </defs>
  <!-- Generator: Adobe Illustrator 28.6.0, SVG Export Plug-In . SVG Version: 1.2.0 Build 709)  -->
  <g>
    <g id="Capa_1">
      <g>
        <path class="cls-1" d="M41.4,17.1c0,8.7-9,7.1-20,7.1S1.4,25.8,1.4,17.1,10.4,1.3,21.4,1.3s20,7.1,20,15.8Z"/>
        <rect class="cls-1" x="4.7" y="27.8" width="33.5" height="10.5" rx="5.2" ry="5.2"/>
      </g>
      <g>
        <path class="cls-1" d="M55.5,12.2h3.1v14.4h7.4v2.7h-10.5V12.2Z"/>
        <path class="cls-1" d="M73.7,16.7c3.7,0,6.7,2.7,6.7,6.4s-3,6.4-6.7,6.4-6.7-2.6-6.7-6.4,3-6.4,6.7-6.4ZM73.8,26.9c2,0,3.6-1.5,3.6-3.8s-1.7-3.8-3.6-3.8-3.6,1.6-3.6,3.8,1.7,3.8,3.6,3.8Z"/>
        <path class="cls-1" d="M87.6,31.7c1.9,0,3.5-.8,3.5-3v-.7c0-.3,0-.6,0-.6h0c-.7,1.1-1.8,1.7-3.4,1.7-3.5,0-5.5-2.8-5.5-6.2s1.9-6.1,5.4-6.1,3.6,1.6,3.6,1.6h0s0-.1,0-.3v-.9h2.9v11.5c0,4.2-3.3,5.8-6.5,5.8s-3.2-.4-4.3-1.1l.9-2.3s1.5.8,3.4.8ZM91.1,22.8c0-2.8-1.4-3.5-3-3.5s-2.9,1.3-2.9,3.4,1.1,3.7,3.1,3.7,2.8-.8,2.8-3.6Z"/>
        <path class="cls-1" d="M103.2,16.7c3.7,0,6.7,2.7,6.7,6.4s-3,6.4-6.7,6.4-6.7-2.6-6.7-6.4,3-6.4,6.7-6.4ZM103.3,26.9c2,0,3.6-1.5,3.6-3.8s-1.7-3.8-3.6-3.8-3.6,1.6-3.6,3.8,1.7,3.8,3.6,3.8Z"/>
        <path class="cls-1" d="M112.9,12.2h10.2v2.7h-7.1v4.5h5.7v2.7h-5.7v4.6h7.5v2.7h-10.6V12.2Z"/>
        <path class="cls-1" d="M130.8,25s-.2.4-.3.6l-2.1,3.6h-3.4l4-6.2-3.9-6h3.5l1.9,3.3c.2.3.4.8.4.8h0s.2-.5.4-.8l1.9-3.3h3.5l-3.9,6,4,6.2h-3.4l-2.1-3.6c-.2-.3-.3-.6-.3-.6h0Z"/>
        <path class="cls-1" d="M145,21.6h.4v-.2c0-1.6-1-2.2-2.4-2.2s-3.4,1.2-3.4,1.2l-1.2-2.2s1.9-1.5,4.8-1.5,5.1,1.8,5.1,4.9v7.7h-2.8v-1c0-.5,0-.9,0-.9h0s-.9,2.2-3.7,2.2-4.2-1.4-4.2-3.8c0-3.9,5.3-4.2,7.2-4.2ZM142.7,27.1c1.6,0,2.8-1.7,2.8-3.2v-.3h-.5c-1.6,0-4.1.2-4.1,1.9s.6,1.6,1.8,1.6Z"/>
        <path class="cls-1" d="M151.6,17h2.9v1.4c0,.5,0,.8,0,.8h0c.6-1.2,2.1-2.5,4-2.5s3.1.9,3.6,2.5h0c.7-1.3,2.3-2.5,4.2-2.5s4,1.4,4,4.7v7.9h-3v-7.3c0-1.4-.3-2.4-1.7-2.4s-2.6,1.2-3,2.8c-.1.5-.1,1-.1,1.6v5.4h-3v-7.3c0-1.3-.2-2.4-1.7-2.4s-2.6,1.2-3,2.8c-.1.5-.1,1-.1,1.6v5.4h-3v-12.2Z"/>
        <path class="cls-1" d="M173.5,17h2.8v.9c0,.5,0,.8,0,.8h0s1.1-2,3.9-2,5.4,2.6,5.4,6.4-2.4,6.4-5.6,6.4-3.5-1.7-3.5-1.7h0s0,.4,0,1.1v5.1h-3v-17ZM179.5,27c1.7,0,3.1-1.4,3.1-3.8s-1.2-3.8-3-3.8-3.1,1.2-3.1,3.9,1,3.8,3,3.8Z"/>
        <path class="cls-1" d="M188,12.2h3v12.8c0,1.3.5,1.7,1.2,1.7s.5,0,.5,0v2.7s-.5,0-1,0c-1.7,0-3.8-.4-3.8-3.9v-13.2Z"/>
        <path class="cls-1" d="M200.4,16.7c3.5,0,5.4,2.6,5.4,5.8s0,1.2,0,1.2h-8.4c.2,2.1,1.8,3.2,3.7,3.2s3.5-1.3,3.5-1.3l1.2,2.2s-1.9,1.8-4.9,1.8-6.6-2.9-6.6-6.4,2.6-6.4,6.2-6.4ZM202.7,21.6c0-1.7-1.1-2.5-2.4-2.5s-2.6,1-2.9,2.5h5.4Z"/>
      </g>
    </g>
  </g>
</svg>