<?xml version="1.0" encoding="UTF-8"?>
<svg xmlns="http://www.w3.org/2000/svg" version="1.1" viewBox="0 0 280.7 124.4">
  <!-- Generator: Adobe Illustrator 28.6.0, SVG Export Plug-In . SVG Version: 1.2.0 Build 709)  -->
  <g>
    <g id="Capa_1">
      <g>
        <path d="M10.6,10.4h15.1v70.3h36v13H10.6V10.4Z"/>
        <path d="M99.8,32.5c18.3,0,33,13,33,31.3s-14.7,31.3-32.9,31.3-33-12.9-33-31.3,14.7-31.3,32.9-31.3ZM100,82.5c9.6,0,17.7-7.5,17.7-18.7s-8.1-18.7-17.7-18.7-17.8,7.6-17.8,18.7,8.1,18.7,17.8,18.7Z"/>
        <path d="M167.4,105.7c9.2,0,16.9-3.9,16.9-14.5v-3.5c0-1.4.2-3.2.2-3.2h-.2c-3.5,5.3-8.7,8.1-16.7,8.1-17.1,0-26.9-13.8-26.9-30.3s9.3-29.8,26.5-29.8,17.7,7.6,17.7,7.6h.4s-.1-.7-.1-1.6v-4.6h14v56.2c0,20.5-16,28.3-31.6,28.3s-15.5-2.1-21.2-5.2l4.5-11.4s7.5,3.9,16.5,3.9ZM184.7,62.4c0-13.6-6.7-17.2-14.8-17.2s-14.1,6.6-14.1,16.7,5.4,18.2,15,18.2,13.8-4.1,13.8-17.6Z"/>
        <path d="M244,32.5c18.3,0,33,13,33,31.3s-14.7,31.3-32.9,31.3-33-12.9-33-31.3,14.7-31.3,32.9-31.3ZM244.1,82.5c9.6,0,17.7-7.5,17.7-18.7s-8.1-18.7-17.7-18.7-17.8,7.6-17.8,18.7,8.1,18.7,17.8,18.7Z"/>
      </g>
    </g>
  </g>
</svg>